<?xml version="1.0" standalone="no"?>
<!DOCTYPE svg PUBLIC "-//W3C//DTD SVG 20010904//EN"
 "http://www.w3.org/TR/2001/REC-SVG-20010904/DTD/svg10.dtd">
<svg version="1.0" xmlns="http://www.w3.org/2000/svg"
 width="822.000000pt" height="1145.000000pt" viewBox="0 0 822.000000 1145.000000"
 preserveAspectRatio="xMidYMid meet">

<g transform="translate(0.000000,1145.000000) scale(0.100000,-0.100000)"
fill="#000000" stroke="none">
<path d="M2786 10920 c-77 -14 -169 -50 -218 -86 -33 -23 -75 -75 -142 -176
-150 -223 -135 -219 -129 -38 3 85 1 169 -3 187 l-9 31 -80 -105 c-44 -58
-127 -166 -185 -241 -441 -571 -836 -1094 -869 -1150 -67 -115 -86 -181 -86
-307 0 -98 3 -116 26 -165 50 -107 133 -174 207 -168 62 5 67 27 66 278 -1
118 -6 246 -11 283 -9 67 -9 70 23 124 83 136 263 323 354 365 100 47 166 61
254 55 117 -8 565 -123 1441 -368 463 -130 698 -195 797 -220 l88 -21 71 58
c38 33 87 73 107 89 l37 30 -24 -40 c-71 -118 -103 -176 -100 -179 8 -6 249
-76 432 -125 332 -89 591 -141 934 -188 l61 -8 -85 -100 c-303 -357 -983
-1234 -1318 -1701 -27 -38 -97 -134 -154 -214 -141 -195 -376 -534 -491 -705
-52 -77 -95 -142 -97 -144 -1 -2 -170 -41 -375 -87 -720 -162 -1509 -349
-1548 -367 -36 -17 -80 -109 -80 -167 0 -91 72 -180 147 -180 109 0 315 130
553 350 50 46 74 61 105 65 56 8 999 94 1002 92 1 -2 -30 -52 -69 -112 -325
-502 -542 -889 -936 -1667 -236 -468 -321 -628 -334 -628 -53 0 -157 -158
-240 -363 l-53 -129 -115 -86 c-434 -323 -762 -634 -914 -869 -93 -144 -136
-306 -106 -397 15 -47 68 -87 123 -93 l44 -5 6 104 c11 181 56 347 138 509 34
68 43 78 81 94 58 24 233 31 384 16 181 -19 165 -2 130 -137 -16 -63 -26 -117
-22 -121 9 -9 70 22 117 59 29 24 91 102 115 146 5 9 365 -92 480 -133 350
-127 1061 -424 1879 -785 869 -384 1176 -510 1381 -565 94 -26 180 -34 206
-19 8 5 75 77 149 161 73 84 134 151 135 150 1 -1 -15 -54 -37 -117 -47 -141
-86 -295 -95 -375 l-7 -60 40 50 c61 76 300 306 568 547 249 223 493 466 652
648 350 401 639 825 724 1065 29 83 37 220 15 263 -9 17 -26 37 -38 43 -33 18
-126 6 -196 -26 -68 -30 -68 -33 -35 -99 70 -136 82 -248 38 -343 -35 -78
-122 -206 -190 -281 -135 -148 -290 -236 -530 -298 -101 -27 -124 -29 -280
-28 -245 1 -448 32 -800 121 -427 108 -795 250 -1885 726 -591 258 -646 281
-870 372 -344 139 -633 231 -799 256 -45 6 -81 14 -81 17 0 3 80 163 178 356
231 454 432 822 580 1061 92 148 424 645 551 824 l119 167 273 22 c778 63
1287 94 1599 95 l205 1 82 -33 c158 -62 283 -175 354 -319 l33 -67 20 45 c17
36 21 65 21 141 0 91 -2 100 -36 166 l-35 69 48 55 c59 67 128 201 135 261 11
99 -40 162 -162 201 -62 20 -91 22 -265 22 -217 0 -307 -10 -735 -81 -262 -44
-880 -163 -1155 -223 -74 -16 -136 -28 -138 -26 -11 10 602 796 937 1204 362
439 576 688 856 996 276 303 373 413 476 536 73 87 96 108 129 118 56 17 111
74 138 146 75 197 256 409 714 838 86 81 179 177 206 214 115 153 152 418 81
584 -47 109 -159 160 -233 106 -19 -14 -19 -16 -2 -96 20 -93 23 -217 7 -306
-6 -33 -15 -103 -21 -155 -6 -52 -18 -118 -25 -146 l-15 -51 -62 -14 c-183
-40 -467 4 -1147 177 -487 124 -1472 406 -1726 494 -278 96 -671 197 -915 235
-120 19 -469 29 -544 15z"/>
</g>
</svg>
